<?xml version="1.0" encoding="UTF-8"?>
<svg version="1.1" xmlns="http://www.w3.org/2000/svg" width="512" height="512">
<path d="M0 0 C1.81520335 -0.00874829 1.81520335 -0.00874829 3.66707748 -0.01767331 C5.01173066 -0.01404004 6.35638334 -0.01021566 7.7010355 -0.00622082 C9.12810722 -0.00924054 10.55517732 -0.01312911 11.98224455 -0.01781338 C15.90852641 -0.0281253 19.83471728 -0.02590347 23.76100671 -0.02163279 C27.99352886 -0.01917135 32.22602876 -0.02817245 36.45854282 -0.03567028 C44.75221889 -0.04843542 53.04586261 -0.05020872 61.33954685 -0.04787002 C68.07902015 -0.04608877 74.81848362 -0.04783234 81.55795574 -0.05209446 C82.51624516 -0.05268965 83.47453457 -0.05328484 84.46186306 -0.05389806 C86.40847027 -0.05510978 88.35507748 -0.05632392 90.30168469 -0.05754044 C108.56686172 -0.06842291 126.8320203 -0.0662501 145.09719837 -0.06015559 C161.81602692 -0.05498545 178.53479722 -0.06624319 195.25361424 -0.08525381 C212.41074882 -0.10461365 229.56785582 -0.1128915 246.72500139 -0.10913056 C256.36134925 -0.10721574 265.99764751 -0.10973338 275.63398647 -0.1238451 C283.83717023 -0.13573625 292.04027387 -0.13718931 300.24345868 -0.12505493 C304.43038393 -0.11915034 308.61716247 -0.11811023 312.8040781 -0.13005733 C316.6352667 -0.14086254 320.46618517 -0.13787723 324.29736084 -0.12379565 C325.68493867 -0.12113386 327.07253731 -0.12356148 328.4600948 -0.13153151 C330.34353633 -0.14160082 332.2270537 -0.13144654 334.11048889 -0.12025452 C335.68098736 -0.12033704 335.68098736 -0.12033704 337.28321308 -0.12042123 C340.57244707 0.3145503 342.45113256 1.31193952 345.11816502 3.25447559 C347.91420628 7.73275465 347.39090698 12.89847176 347.35867405 18.00504017 C347.3612421 19.48408077 347.3612421 19.48408077 347.36386204 20.99300098 C347.36717483 24.31045711 347.35612136 27.62771172 347.3452158 30.94514942 C347.34460321 33.35872453 347.34486997 35.77229999 347.34594631 38.18587494 C347.34639829 44.65605566 347.33479685 51.12616258 347.32072544 57.59632587 C347.30934534 63.66511744 347.30879973 69.73389094 347.307374 75.80269337 C347.29687452 93.55746391 347.26895227 111.31222068 347.24316502 129.06697559 C347.20191502 168.72885059 347.16066502 208.39072559 347.11816502 249.25447559 C228.31816502 249.25447559 109.51816502 249.25447559 -12.88183498 249.25447559 C-12.94370998 209.61322559 -13.00558498 169.97197559 -13.06933498 129.12947559 C-13.096647 116.60220509 -13.12395901 104.07493458 -13.15209866 91.16804981 C-13.16564846 75.89729786 -13.16564846 75.89729786 -13.16816616 68.75352955 C-13.17096661 63.75291946 -13.18223089 58.75240444 -13.19856167 53.75182056 C-13.21910397 47.37742719 -13.22531492 41.00317253 -13.22105181 34.62874913 C-13.22194355 32.28674521 -13.22791305 29.94473655 -13.23948038 27.60276103 C-13.25436247 24.44342904 -13.25081974 21.28463865 -13.24259853 18.12529469 C-13.25133653 17.20531759 -13.26007452 16.2853405 -13.2690773 15.33748531 C-13.23350412 10.26466552 -12.85516026 6.57142219 -9.88183498 2.25447559 C-6.5995752 0.10286047 -3.87249083 0.00320641 0 0 Z " fill="#000000" transform="translate(88.88183498382568,41.745524406433105)"/>
<path d="M0 0 C0.67962071 -0.0072672 1.35924143 -0.01453441 2.05945671 -0.02202183 C4.34185076 -0.04030207 6.62257062 -0.02290479 8.904953 -0.00571251 C10.55563371 -0.01147257 12.20630802 -0.01941291 13.85696888 -0.02934873 C18.39682257 -0.05026139 22.93615213 -0.03988694 27.47600794 -0.02441764 C32.37044012 -0.01312608 37.26478082 -0.03055592 42.15919495 -0.04431725 C51.74887356 -0.06657767 61.33835678 -0.06173597 70.92804313 -0.04725404 C78.72013693 -0.03597283 86.51217589 -0.03442606 94.30427551 -0.03987312 C95.41229894 -0.04063929 96.52032238 -0.04140545 97.66192228 -0.04219484 C99.91268597 -0.04379342 102.16344964 -0.04541449 104.4142133 -0.04705779 C125.53125118 -0.06132351 146.64818063 -0.04490965 167.76520073 -0.01805596 C185.89378901 0.00428354 204.02221722 0.00040365 222.15080261 -0.02264977 C243.191064 -0.04939322 264.2312303 -0.05995014 285.27150631 -0.04458845 C287.51409847 -0.04299566 289.75669065 -0.04142381 291.99928284 -0.03987312 C293.10274844 -0.03910175 294.20621405 -0.03833037 295.34311801 -0.03753562 C303.12796387 -0.03321425 310.91274952 -0.04051456 318.69758606 -0.05227089 C328.18171921 -0.06627826 337.66564539 -0.06253306 347.14975476 -0.03586717 C351.99091184 -0.02270526 356.83172356 -0.01761697 361.67287827 -0.03411293 C366.10186164 -0.04897645 370.53017847 -0.04088418 374.95910108 -0.01422517 C376.56400306 -0.00862486 378.16896097 -0.01151529 379.7738272 -0.02360411 C381.95121136 -0.03875147 384.12629545 -0.02328154 386.30355835 0 C387.51405444 0.00081176 388.72455053 0.00162352 389.97172832 0.00245988 C394.09141872 0.81439619 395.58360475 2.37036285 398.15177917 5.6292057 C398.65294954 8.3540595 398.85623129 10.44547011 398.81584167 13.1604557 C398.82062531 13.87399208 398.82540894 14.58752846 398.83033752 15.32268715 C398.83372728 16.82543592 398.82458925 18.32825937 398.80363464 19.83086586 C398.77684701 22.12340045 398.80340448 24.41104104 398.83537292 26.70342445 C398.83206865 28.16827894 398.82566203 29.6331304 398.81584167 31.0979557 C398.82596283 31.77829872 398.83608398 32.45864174 398.84651184 33.15960121 C398.75878514 36.74512875 398.27603847 38.47152891 396.03935719 41.30972898 C392.49591353 44.15603652 390.80376383 44.25539356 386.30355835 44.25841141 C385.62393764 44.26567861 384.94431692 44.27294582 384.24410164 44.28043324 C381.96170759 44.29871348 379.68098773 44.28131619 377.39860535 44.26412392 C375.74792463 44.26988397 374.09725033 44.27782432 372.44658947 44.28776014 C367.90673578 44.3086728 363.36740622 44.29829834 358.82755041 44.28282905 C353.93311823 44.27153749 349.03877753 44.28896733 344.1443634 44.30272865 C334.55468478 44.32498908 324.96520157 44.32014738 315.37551522 44.30566545 C307.58342142 44.29438423 299.79138246 44.29283746 291.99928284 44.29828453 C290.33724769 44.29943378 290.33724769 44.29943378 288.64163607 44.30060624 C286.39087238 44.30220483 284.14010871 44.3038259 281.88934505 44.3054692 C260.77230717 44.31973492 239.65537772 44.30332105 218.53835762 44.27646737 C200.40976934 44.25412787 182.28134113 44.25800776 164.15275574 44.28106117 C143.11249435 44.30780463 122.07232805 44.31836155 101.03205204 44.30299985 C98.78945988 44.30140707 96.5468677 44.29983522 94.30427551 44.29828453 C93.2008099 44.29751315 92.0973443 44.29674178 90.96044034 44.29594702 C83.17559448 44.29162566 75.39080882 44.29892597 67.60597229 44.3106823 C58.12183914 44.32468967 48.63791296 44.32094447 39.15380359 44.29427858 C34.31264651 44.28111666 29.47183479 44.27602838 24.63068008 44.29252434 C20.20169671 44.30738786 15.77337988 44.29929559 11.34445727 44.27263658 C9.73955529 44.26703626 8.13459737 44.2699267 6.52973115 44.28201552 C4.35234699 44.29716288 2.1772629 44.28169294 0 44.25841141 C-1.21049609 44.25759965 -2.42099218 44.25678788 -3.66816998 44.25595152 C-7.78786037 43.44401522 -9.28004641 41.88804856 -11.84822083 38.6292057 C-12.34939119 35.90435191 -12.55267294 33.8129413 -12.51228333 31.0979557 C-12.51706696 30.38441933 -12.52185059 29.67088295 -12.52677917 28.93572426 C-12.53016893 27.43297548 -12.5210309 25.93015204 -12.50007629 24.42754555 C-12.47328866 22.13501096 -12.49984613 19.84737037 -12.53181458 17.55498695 C-12.5285103 16.09013246 -12.52210368 14.625281 -12.51228333 13.1604557 C-12.52240448 12.48011269 -12.53252563 11.79976967 -12.54295349 11.0988102 C-12.45522679 7.51328265 -11.97248012 5.7868825 -9.73579884 2.94868243 C-6.19235518 0.10237488 -4.50020548 0.00301785 0 0 Z " fill="#000000" transform="translate(62.84822082519531,306.37079429626465)"/>
<path d="M0 0 C5.51254109 -0.42330493 11.01551408 -0.72983002 16.54052734 -0.93383789 C18.41394723 -1.01887599 20.28625293 -1.13458419 22.15576172 -1.2824707 C34.48434986 -2.2325939 34.48434986 -2.2325939 40 0 C44.50725928 3.90629138 46.75789742 9.43048513 49.0447998 14.81918335 C50.3678734 17.83989141 52.02747858 20.61315896 53.73046875 23.43359375 C54.88355831 25.43446621 56.03589289 27.43577394 57.1875 29.4375 C58.4830528 31.68620951 59.77862632 33.93490708 61.07421875 36.18359375 C61.72438965 37.31265137 62.37456055 38.44170898 63.04443359 39.60498047 C66.19332054 45.0716998 69.34683264 50.53574887 72.5 56 C73.7500235 58.16665311 75.00002347 60.33331979 76.25 62.5 C76.86875 63.5725 77.4875 64.645 78.125 65.75 C80 69 81.875 72.25 83.75 75.5 C84.6795752 77.11116699 84.6795752 77.11116699 85.62792969 78.75488281 C86.86838986 80.90514319 88.10862703 83.05553224 89.34863281 85.20605469 C92.26830662 90.26897509 95.19018475 95.33058332 98.12011719 100.38757324 C99.49918031 102.76812173 100.87695785 105.14941306 102.25463867 107.53076172 C103.22384658 109.2048265 104.19490565 110.87781912 105.16601562 112.55078125 C105.75576172 113.57042969 106.34550781 114.59007812 106.953125 115.640625 C107.47036133 116.53297852 107.98759766 117.42533203 108.52050781 118.34472656 C113.56173079 127.3923076 113.56173079 127.3923076 112.75 131 C111.07048162 136.40949171 106.7049043 138.3902484 102 141 C100.8553125 141.73283203 100.8553125 141.73283203 99.6875 142.48046875 C94.56736967 145.65388286 91.02372 147.00395333 85 146 C79.75974873 141.80254121 76.89388344 136.0823181 73.625 130.3125 C73.017771 129.25595215 72.41054199 128.1994043 71.78491211 127.11083984 C70.4994016 124.87309323 69.21716423 122.63346354 67.93798828 120.39208984 C65.44817516 116.03413275 62.9357562 111.68943422 60.42333984 107.34448242 C57.90817738 102.99294118 55.39986935 98.63746331 52.89111328 94.28222656 C49.76319852 88.85340058 46.63141552 83.42680719 43.5 78 C42.24998121 75.83334417 40.99998122 73.6666775 39.75 71.5 C39.13125 70.4275 38.5125 69.355 37.875 68.25 C32.25 58.5 32.25 58.5 30.37280273 55.24609375 C29.13023981 53.0923828 27.88756511 50.93873633 26.64477539 48.78515625 C23.74685377 43.76315738 20.84996651 38.74057193 17.95724487 33.71557617 C16.94052802 31.94954478 15.92344342 30.18372569 14.90625 28.41796875 C13.63599127 26.21265845 12.36640982 24.00695784 11.09765625 21.80078125 C10.51757812 20.79402344 9.9375 19.78726562 9.33984375 18.75 C8.78538574 17.78707031 8.23092773 16.82414062 7.65966797 15.83203125 C5.53035066 12.19859778 3.31240239 8.62233886 1.06860352 5.05859375 C0 3 0 3 0 0 Z " fill="#000000" transform="translate(337,366)"/>
<path d="M0 0 C3.05075084 -0.266487 5.89626179 -0.34757146 8.9453125 -0.29296875 C10.27283035 -0.28660149 10.27283035 -0.28660149 11.62716675 -0.28010559 C14.46008445 -0.26328259 17.29229652 -0.22562425 20.125 -0.1875 C22.04295849 -0.17245782 23.96092811 -0.15876861 25.87890625 -0.14648438 C30.58621031 -0.11336727 35.29298544 -0.06156055 40 0 C39.41933397 3.80560234 38.33578266 6.526577 36.3671875 9.82421875 C35.81619385 10.75669434 35.2652002 11.68916992 34.69750977 12.64990234 C33.79536743 14.15351318 33.79536743 14.15351318 32.875 15.6875 C31.58913841 17.86025981 30.30400648 20.03345157 29.01953125 22.20703125 C28.3538916 23.32932129 27.68825195 24.45161133 27.00244141 25.60791016 C23.81524874 31.00694148 20.68875325 36.4405284 17.5625 41.875 C16.30346844 44.05994368 15.04435339 46.24483925 13.78515625 48.4296875 C12.84760498 50.05729004 12.84760498 50.05729004 11.89111328 51.71777344 C8.76319852 57.14659942 5.63141552 62.57319281 2.5 68 C1.24998121 70.16665583 -0.00001878 72.3333225 -1.25 74.5 C-3.75 78.83333333 -6.25 83.16666667 -8.75 87.5 C-9.36939453 88.5737085 -9.98878906 89.64741699 -10.62695312 90.75366211 C-11.870123 92.90830624 -13.11360975 95.06276757 -14.35742188 97.21704102 C-17.24983147 102.22754121 -20.13935227 107.23962635 -23.01696777 112.25863647 C-24.02548314 114.01728749 -25.0350477 115.77533209 -26.04492188 117.53320312 C-27.30350518 119.72472231 -28.56016987 121.91734504 -29.81445312 124.11132812 C-40.77903316 143.18602211 -40.77903316 143.18602211 -45 146 C-52.01591655 146.8222956 -56.01133743 144.88572227 -61.875 141.1875 C-63.01195313 140.50977539 -63.01195313 140.50977539 -64.171875 139.81835938 C-67.62686043 137.71278551 -69.71339948 136.42990078 -72 133 C-73.35119427 124.76913353 -69.17191788 118.96309011 -65.125 112.0625 C-64.42696909 110.8439906 -63.73036588 109.62466227 -63.03515625 108.40454102 C-61.04501507 104.92353511 -59.02542942 101.46059084 -57 98 C-56.52143555 97.17725586 -56.04287109 96.35451172 -55.54980469 95.50683594 C-53.59533431 92.14821273 -51.6232302 88.80069685 -49.63671875 85.4609375 C-46.31124198 79.85754155 -43.06505747 74.20842533 -39.8125 68.5625 C-39.17441406 67.45511475 -38.53632812 66.34772949 -37.87890625 65.20678711 C-36.57093309 62.93630921 -35.26315487 60.665719 -33.95556641 58.39501953 C-30.1924982 51.86203246 -26.42330615 45.33257705 -22.65478516 38.80273438 C-19.71883248 33.7148838 -16.78416114 28.62630761 -13.85409546 23.5350647 C-12.46671905 21.12456252 -11.07860376 18.71448624 -9.69042969 16.30444336 C-8.70826185 14.59856032 -7.72716615 12.89206014 -6.74609375 11.18554688 C-6.153125 10.15623047 -5.56015625 9.12691406 -4.94921875 8.06640625 C-4.42674561 7.15834229 -3.90427246 6.25027832 -3.3659668 5.31469727 C-2.30022034 3.50873799 -1.16319248 1.74478871 0 0 Z " fill="#000000" transform="translate(131,366)"/>
<path d="M0 0 C11.88 0 23.76 0 36 0 C36.06779189 14.48208582 36.12282567 28.96406614 36.15543652 43.44627476 C36.17088744 50.17102818 36.19194281 56.89567582 36.22631836 63.62036133 C36.25892784 70.11074381 36.27685653 76.60101644 36.28463173 83.09147453 C36.29017233 85.56698269 36.30099173 88.04248488 36.31719017 90.51794624 C36.33898499 93.98678683 36.34196599 97.45517416 36.34057617 100.92407227 C36.351362 101.94618805 36.36214783 102.96830383 36.3732605 104.02139282 C36.34827161 109.78998194 35.80150721 113.9151661 33 119 C28.759177 122.2117063 23.14192684 121.32898094 18.0625 121.3125 C17.07314453 121.32861328 16.08378906 121.34472656 15.06445312 121.36132812 C5.5095539 121.36775375 5.5095539 121.36775375 2 118 C-0.52559202 112.45244517 -0.26889058 107.00592257 -0.22705078 101.03759766 C-0.22748886 99.39768356 -0.22748886 99.39768356 -0.22793579 97.72463989 C-0.22654556 94.12103258 -0.21099852 90.51763357 -0.1953125 86.9140625 C-0.19158129 84.41157138 -0.18873483 81.9090788 -0.18673706 79.40658569 C-0.17988827 73.49936861 -0.16413491 67.59221805 -0.14403808 61.68503511 C-0.11944978 54.29654708 -0.10873951 46.90804974 -0.09765625 39.51953125 C-0.0762212 26.34630901 -0.0410458 13.17317575 0 0 Z " fill="#000000" transform="translate(238,366)"/>
<path d="M0 0 C1.19302734 -0.01998047 2.38605469 -0.03996094 3.61523438 -0.06054688 C4.76185547 -0.05990234 5.90847656 -0.05925781 7.08984375 -0.05859375 C8.13906006 -0.06044678 9.18827637 -0.0622998 10.26928711 -0.06420898 C13.77690868 0.56582006 14.92443088 1.62887011 17.0625 4.4375 C18.84293103 11.55922411 18.0625 19.09659482 18.0625 26.4375 C6.1825 26.4375 -5.6975 26.4375 -17.9375 26.4375 C-17.9375 6.27144691 -17.9375 6.27144691 -14.67749023 1.65209961 C-10.68624449 -1.13398816 -4.67915035 -0.0277171 0 0 Z " fill="#000000" transform="translate(255.9375,-0.4375)"/>
</svg>
